<mxfile host="65bd71144e">
    <diagram id="rRGUnxJFohgw-VGJ73ms" name="ページ1">
        <mxGraphModel dx="1152" dy="523" grid="1" gridSize="10" guides="1" tooltips="1" connect="1" arrows="1" fold="1" page="1" pageScale="1" pageWidth="827" pageHeight="1169" math="0" shadow="0">
            <root>
                <mxCell id="0"/>
                <mxCell id="1" parent="0"/>
                <mxCell id="23" value="" style="edgeStyle=none;html=1;" edge="1" parent="1" source="2" target="4">
                    <mxGeometry relative="1" as="geometry">
                        <mxPoint x="470" y="210" as="targetPoint"/>
                    </mxGeometry>
                </mxCell>
                <mxCell id="2" value="ブロックが落ちてくる" style="rounded=0;whiteSpace=wrap;html=1;" vertex="1" parent="1">
                    <mxGeometry x="390" y="80" width="160" height="60" as="geometry"/>
                </mxCell>
                <mxCell id="3" value="回転させる" style="rounded=0;whiteSpace=wrap;html=1;" vertex="1" parent="1">
                    <mxGeometry x="5" y="320" width="120" height="60" as="geometry"/>
                </mxCell>
                <mxCell id="4" value="底に落ちる" style="rounded=0;whiteSpace=wrap;html=1;" vertex="1" parent="1">
                    <mxGeometry x="410" y="320" width="120" height="60" as="geometry"/>
                </mxCell>
                <mxCell id="18" value="" style="edgeStyle=none;html=1;" edge="1" parent="1" source="4" target="5">
                    <mxGeometry relative="1" as="geometry">
                        <mxPoint x="570" y="370" as="targetPoint"/>
                    </mxGeometry>
                </mxCell>
                <mxCell id="5" value="次のブロック" style="rounded=0;whiteSpace=wrap;html=1;" vertex="1" parent="1">
                    <mxGeometry x="610" y="320" width="120" height="60" as="geometry"/>
                </mxCell>
                <mxCell id="8" value="" style="endArrow=classic;html=1;" edge="1" parent="1" source="2" target="3">
                    <mxGeometry width="50" height="50" relative="1" as="geometry">
                        <mxPoint x="550" y="390" as="sourcePoint"/>
                        <mxPoint x="600" y="340" as="targetPoint"/>
                    </mxGeometry>
                </mxCell>
                <mxCell id="10" value="左右に動かす" style="rounded=0;whiteSpace=wrap;html=1;" vertex="1" parent="1">
                    <mxGeometry x="245" y="320" width="120" height="60" as="geometry"/>
                </mxCell>
                <mxCell id="11" value="" style="endArrow=classic;html=1;" edge="1" parent="1" source="4" target="10">
                    <mxGeometry width="50" height="50" relative="1" as="geometry">
                        <mxPoint x="460" y="310" as="sourcePoint"/>
                        <mxPoint x="510" y="260" as="targetPoint"/>
                    </mxGeometry>
                </mxCell>
                <mxCell id="14" value="入れ替え" style="rounded=0;whiteSpace=wrap;html=1;" vertex="1" parent="1">
                    <mxGeometry x="125" y="320" width="120" height="60" as="geometry"/>
                </mxCell>
                <mxCell id="15" value="" style="endArrow=classic;html=1;" edge="1" parent="1" source="2" target="14">
                    <mxGeometry width="50" height="50" relative="1" as="geometry">
                        <mxPoint x="550" y="390" as="sourcePoint"/>
                        <mxPoint x="600" y="340" as="targetPoint"/>
                    </mxGeometry>
                </mxCell>
                <mxCell id="17" value="" style="endArrow=classic;html=1;startArrow=none;" edge="1" parent="1" source="2" target="10">
                    <mxGeometry width="50" height="50" relative="1" as="geometry">
                        <mxPoint x="367.27272727272725" y="270" as="sourcePoint"/>
                        <mxPoint x="530" y="340" as="targetPoint"/>
                    </mxGeometry>
                </mxCell>
                <mxCell id="24" value="接地時間で分岐" style="shape=callout;whiteSpace=wrap;html=1;perimeter=calloutPerimeter;position2=0.25;size=30;position=0.5;base=30;direction=east;" vertex="1" parent="1">
                    <mxGeometry x="480" y="250" width="120" height="70" as="geometry"/>
                </mxCell>
                <mxCell id="27" value="fall" style="ellipse;whiteSpace=wrap;html=1;" vertex="1" parent="1">
                    <mxGeometry x="444" y="120" width="86" height="40" as="geometry"/>
                </mxCell>
                <mxCell id="28" value="fallchange" style="ellipse;whiteSpace=wrap;html=1;" vertex="1" parent="1">
                    <mxGeometry x="420" y="360" width="90" height="40" as="geometry"/>
                </mxCell>
                <mxCell id="30" value="endturn" style="ellipse;whiteSpace=wrap;html=1;" vertex="1" parent="1">
                    <mxGeometry x="625" y="360" width="90" height="50" as="geometry"/>
                </mxCell>
                <mxCell id="31" value="press_key" style="ellipse;whiteSpace=wrap;html=1;" vertex="1" parent="1">
                    <mxGeometry x="110" y="360" width="150" height="80" as="geometry"/>
                </mxCell>
            </root>
        </mxGraphModel>
    </diagram>
</mxfile>